<svg width="192" height="41" viewBox="0 0 192 41" fill="none" xmlns="http://www.w3.org/2000/svg">
<g clip-path="url(#clip0_4562_1737)">
<path d="M19.4579 20.429C19.2574 20.3891 19.0569 20.3591 18.8264 20.3191C18.6058 20.3491 18.3652 20.3791 18.1246 20.429C17.9141 20.469 17.7837 20.599 17.7336 20.8088C17.6835 21.0187 17.7537 21.1987 17.9241 21.3386C18.3752 21.6984 19.2173 21.6984 19.6584 21.3386C19.8289 21.1987 19.889 21.0187 19.8489 20.8088C19.7988 20.599 19.6584 20.469 19.4579 20.429Z" fill="white"/>
<path d="M18.786 21.8981C18.395 21.8981 18.0041 21.7882 17.7334 21.5583C17.4727 21.3484 17.3725 21.0585 17.4427 20.7387C17.5128 20.4189 17.7434 20.199 18.0642 20.139C18.2447 20.109 18.4251 20.079 18.5955 20.059L18.8261 20.0291L19.0767 20.069C19.2271 20.089 19.3775 20.119 19.5178 20.149C19.8386 20.219 20.0592 20.4388 20.1294 20.7487C20.1995 21.0685 20.0993 21.3584 19.8386 21.5683C19.568 21.7882 19.177 21.8981 18.786 21.8981ZM18.8261 20.6188L18.6858 20.6387C18.5254 20.6587 18.3549 20.6887 18.1845 20.7187C18.0943 20.7387 18.0442 20.7787 18.0241 20.8786C18.0041 20.9786 18.0241 21.0485 18.1143 21.1185C18.4552 21.3884 19.1369 21.3884 19.4777 21.1185C19.568 21.0485 19.588 20.9886 19.568 20.8786C19.5479 20.7987 19.5178 20.7487 19.4076 20.7187C19.2772 20.6887 19.1469 20.6687 19.0066 20.6487L18.8261 20.6188Z" fill="#133E5F"/>
<path d="M28.5408 18.7298C27.8491 17.4404 27.1473 16.1711 26.4456 14.8917C26.2852 14.6019 26.3052 14.322 26.4957 14.0521C26.5759 13.9422 26.6561 13.8222 26.7363 13.7123C27.8491 12.0931 27.5383 9.99416 25.9944 8.77477C25.6035 8.46492 25.3328 8.45493 24.9218 8.7148C24.8716 8.74478 24.8115 8.78476 24.7614 8.82474C23.9092 9.47442 23.0571 10.1141 22.215 10.7638C21.2927 10.4239 20.0997 10.224 18.7965 10.224C17.5032 10.224 16.3303 10.4239 15.408 10.7538C15.2676 10.6438 15.1273 10.5339 14.9869 10.4239C14.205 9.81425 13.393 9.24453 12.5809 8.66482C12.3203 8.47492 12.0296 8.49491 11.7589 8.66482C10.6461 9.38446 10.0145 10.8837 10.2351 12.1831C10.3554 12.8827 10.6661 13.4824 11.0872 14.0421C11.2977 14.312 11.3077 14.6019 11.1373 14.9117C10.6762 15.7513 10.205 16.5809 9.75387 17.4304C9.15236 18.5599 8.56089 19.7093 7.97943 20.8487C7.84911 21.0986 7.85913 21.3485 8.00951 21.5884C8.08971 21.7283 8.17994 21.8682 8.27016 22.0082C9.22254 23.4174 10.4757 24.5069 11.8892 25.4264C13.3729 26.376 14.9769 27.0556 16.6511 27.5754C17.3729 27.7953 18.0947 27.9652 18.8566 27.9652C19.0972 27.9452 19.3378 27.9552 19.5684 27.8952C20.2501 27.7253 20.9418 27.5754 21.6135 27.3555C23.7689 26.6458 25.7438 25.6163 27.4581 24.1171C28.2801 23.3975 29.012 22.5779 29.5734 21.6283C29.7238 21.3685 29.7438 21.1086 29.6035 20.8487C29.2526 20.1191 28.9017 19.4194 28.5408 18.7298ZM13.2526 17.8802C12.9619 17.5504 12.7113 16.9807 12.7113 16.6208C13.7138 16.7008 14.7163 16.7708 15.7388 16.8507C15.5985 17.3805 15.3879 17.8302 14.9268 18.1201C14.3754 18.4699 13.6737 18.36 13.2526 17.8802ZM22.3152 24.1971C21.2526 24.8867 20.0897 25.2765 18.7864 25.2965C17.5333 25.2865 16.3704 24.8967 15.2977 24.217C14.8366 23.9272 14.6461 23.3875 14.8666 22.8877C15.2576 22.0181 15.6787 21.1586 16.0997 20.299C16.23 20.0391 16.4506 19.8792 16.7213 19.7993C17.413 19.5994 18.1148 19.4494 18.8466 19.4594C19.5483 19.4694 20.23 19.6093 20.8917 19.8092C21.1523 19.8892 21.3629 20.0591 21.4832 20.299C21.9042 21.1586 22.3152 22.0181 22.7163 22.8877C22.9368 23.3575 22.7564 23.9172 22.3152 24.1971ZM23.5684 18.31C22.9468 18.38 22.4756 18.1401 22.1649 17.6203C22.0245 17.3905 21.9343 17.1406 21.814 16.8607C22.8767 16.7808 23.8691 16.7008 24.8817 16.6308C24.8115 17.3405 24.3203 18.22 23.5684 18.31Z" fill="white"/>
<path d="M18.8264 28.2251C17.9743 28.2251 17.2023 28.0252 16.5507 27.8253C14.6961 27.2555 13.1121 26.5459 11.7186 25.6463C10.1146 24.6169 8.91161 23.4774 8.00936 22.1481C7.91913 22.0082 7.82891 21.8582 7.73868 21.7183C7.54821 21.3885 7.53818 21.0287 7.70861 20.6988L7.98931 20.1691C8.49056 19.2096 8.98179 18.24 9.49307 17.2905C9.88404 16.5409 10.2951 15.8113 10.7061 15.0716L10.8765 14.7718C10.9868 14.5619 10.9868 14.402 10.8464 14.2221C10.3552 13.5724 10.0545 12.9227 9.93417 12.243C9.68354 10.8138 10.3853 9.20457 11.5883 8.42496C11.9693 8.17508 12.3903 8.17508 12.7412 8.42496L12.9718 8.59487C13.6936 9.10462 14.4354 9.64434 15.1572 10.1941C15.2575 10.274 15.3577 10.344 15.458 10.424C17.3828 9.78428 20.2399 9.78428 22.1547 10.434C22.696 10.0242 23.2474 9.60436 23.7888 9.19457L24.5808 8.59487C24.6309 8.55489 24.681 8.5249 24.7412 8.49492C25.2825 8.15509 25.6935 8.17508 26.1747 8.56489C27.8289 9.86424 28.1697 12.1531 26.9767 13.8922C26.9066 13.9922 26.8364 14.0921 26.7562 14.2021C26.5958 14.422 26.5858 14.5819 26.696 14.7718L27.1271 15.5514C27.6885 16.5709 28.2399 17.5904 28.7913 18.6099C29.0519 19.0996 29.3026 19.5994 29.5532 20.0891L29.864 20.6988C30.0444 21.0486 30.0244 21.4185 29.8239 21.7583C29.2825 22.6778 28.5707 23.5074 27.6484 24.317C26.0043 25.7563 24.0595 26.8358 21.7036 27.6154C21.1021 27.8153 20.4705 27.9652 19.869 28.1151L19.6384 28.1751C19.458 28.2151 19.2675 28.2251 19.0971 28.235C19.0269 28.235 18.9567 28.245 18.8765 28.245C18.8565 28.2251 18.8464 28.2251 18.8264 28.2251ZM12.1698 8.81476C12.0996 8.81476 12.0094 8.83475 11.8991 8.90471C10.8966 9.55439 10.3051 10.9437 10.5056 12.1331C10.6058 12.7328 10.8665 13.2825 11.3076 13.8622C11.5883 14.2321 11.6084 14.6418 11.3878 15.0416L11.2174 15.3415C10.8063 16.0711 10.4053 16.8108 10.0043 17.5504C9.49307 18.5099 9.00184 19.4694 8.50059 20.429L8.21989 20.9587C8.13969 21.1086 8.14971 21.2585 8.23994 21.4085C8.32014 21.5484 8.40034 21.6783 8.49056 21.8083C9.34269 23.0676 10.4956 24.1571 12.0294 25.1366C13.3728 26.0062 14.9066 26.6958 16.7211 27.2455C17.3327 27.4354 18.0745 27.6154 18.8364 27.6154C18.8966 27.6054 18.9768 27.6054 19.057 27.6054C19.2073 27.5954 19.3577 27.5954 19.488 27.5654L19.7186 27.5054C20.3101 27.3655 20.9216 27.2156 21.5031 27.0257C23.7888 26.266 25.6735 25.2266 27.2474 23.8472C28.1196 23.0876 28.7913 22.298 29.3026 21.4285C29.4028 21.2485 29.4128 21.0986 29.3326 20.9287L29.0219 20.319C28.7712 19.8293 28.5306 19.3395 28.27 18.8497C27.7186 17.8303 27.1672 16.8108 26.6058 15.7913L26.1747 15.0117C25.9642 14.6219 25.9843 14.2321 26.2449 13.8622C26.3452 13.7223 26.4153 13.6224 26.4855 13.5224C27.5181 12.0232 27.2274 10.1141 25.8038 8.98467C25.5131 8.75479 25.3727 8.74479 25.072 8.94469C25.0018 8.98467 24.9717 9.00466 24.9316 9.03465L24.1397 9.63435C23.5582 10.0741 22.9667 10.5239 22.3853 10.9637L22.2549 11.0636L22.1046 11.0137C20.26 10.344 17.3427 10.344 15.4981 11.0037L15.3477 11.0536L14.8063 10.6239C14.1046 10.0841 13.3627 9.55439 12.6409 9.04465L12.4104 8.87473C12.3502 8.85474 12.27 8.81476 12.1698 8.81476ZM18.7863 25.5864C17.5131 25.5764 16.29 25.1966 15.1372 24.4569C14.5457 24.0771 14.3251 23.3775 14.5958 22.7578C14.9367 21.9982 15.3076 21.2286 15.6685 20.4889L15.8289 20.1591C15.9893 19.8392 16.27 19.6094 16.6409 19.4994C17.2324 19.3295 18.0144 19.1596 18.8464 19.1496C19.4981 19.1596 20.1697 19.2695 20.9818 19.5094C21.3226 19.6094 21.6033 19.8392 21.7537 20.1591L21.894 20.4489C22.265 21.2186 22.6359 21.9782 22.9868 22.7578C23.2575 23.3575 23.0469 24.0671 22.4755 24.4369C21.3126 25.1966 20.1096 25.5664 18.7863 25.5864ZM18.7863 19.7493C18.0545 19.7493 17.3427 19.9192 16.8013 20.0791C16.5908 20.1391 16.4404 20.259 16.3602 20.429L16.1998 20.7588C15.8389 21.4884 15.468 22.248 15.1372 23.0077C14.9768 23.3575 15.1071 23.7473 15.458 23.9772C16.5206 24.6568 17.6434 25.0067 18.7963 25.0167C19.9893 24.9967 21.092 24.6568 22.1647 23.9672C22.4855 23.7573 22.6058 23.3575 22.4554 23.0277C22.1046 22.258 21.7336 21.4984 21.3727 20.7388L21.2324 20.4489C21.1522 20.279 21.0118 20.1691 20.8214 20.1091C20.0695 19.8892 19.4479 19.7793 18.8565 19.7693C18.8264 19.7493 18.8063 19.7493 18.7863 19.7493ZM14.2249 18.6199C13.7838 18.6199 13.3427 18.43 13.0219 18.0701C12.681 17.6803 12.4104 17.0506 12.4104 16.6209V16.301L16.1096 16.5809L16.0194 16.9207C15.8991 17.4005 15.6785 17.9902 15.077 18.36C14.8164 18.5399 14.5156 18.6199 14.2249 18.6199ZM13.473 17.6903C13.8038 18.0601 14.3452 18.1401 14.7662 17.8802C15.0269 17.7203 15.2073 17.4804 15.3477 17.1206L13.072 16.9507C13.1522 17.2106 13.3026 17.5004 13.473 17.6903ZM23.3577 18.6099C22.7462 18.6099 22.2549 18.32 21.9141 17.7703C21.8038 17.6004 21.7336 17.4205 21.6534 17.2306C21.6234 17.1506 21.5833 17.0606 21.5432 16.9807L21.3727 16.6009L25.2023 16.311L25.1722 16.6608C25.092 17.5304 24.4805 18.4999 23.6083 18.5999C23.5181 18.6099 23.4379 18.6099 23.3577 18.6099ZM22.2449 17.1206C22.295 17.2505 22.3552 17.3605 22.4153 17.4704C22.676 17.9002 23.0469 18.0701 23.5382 18.0202C23.9993 17.9602 24.3702 17.4704 24.5206 16.9507L22.2449 17.1206Z" fill="#133E5F"/>
<path d="M36.9617 0.968448C36.9617 0.848508 36.9517 0.728568 36.9416 0.598633C24.8113 0.598633 12.7111 0.598633 0.59082 0.598633C0.59082 0.818523 0.59082 0.978443 0.59082 1.14836C0.59082 6.62562 0.600845 12.0929 0.59082 17.5701C0.59082 19.6791 0.881547 21.7381 1.57327 23.7271C2.93668 27.7051 5.37277 30.8635 8.89156 33.1624C12.0494 35.2213 15.2374 37.2303 18.3853 39.2893C18.7662 39.5392 18.9968 39.3892 19.2775 39.2093C22.3351 37.2503 25.4028 35.3213 28.4404 33.3223C33.9742 29.6741 36.8414 24.4967 36.9517 17.89C37.0419 12.2528 36.9617 6.60563 36.9617 0.968448ZM34.5757 18.0999C34.4755 23.3573 32.27 27.5352 28.1797 30.6236V28.4447H26.4955V31.783C24.2199 33.2923 21.9041 34.7216 19.5983 36.1908V31.5931H17.9141V36.1808C15.6785 34.7316 13.4028 33.3523 11.1973 31.863V28.4347H9.52314V30.7036C5.22239 27.5652 3.02691 23.2273 2.96676 17.87C2.91663 13.0724 2.95673 8.2748 2.95673 3.47719C2.95673 3.29728 2.95673 3.11737 2.95673 2.90748C5.15222 2.90748 7.33768 2.90748 9.52314 2.90748V5.87599H11.2073V2.91747C13.5131 2.91747 15.8289 2.91747 18.1447 2.91747V7.03542H19.8289V2.91747C22.0544 2.91747 24.28 2.91747 26.5056 2.91747V5.88599H28.1898V2.91747C30.3251 2.91747 32.4604 2.91747 34.6058 2.91747C34.6058 3.10738 34.6058 3.2673 34.6058 3.43721C34.5958 8.31478 34.676 13.2123 34.5757 18.0999Z" fill="#F4CA25"/>
<path d="M36.9423 0.598738C36.9523 0.728673 36.9623 0.848613 36.9623 0.968553C36.9623 6.60573 37.0425 12.2529 36.9423 17.8901C36.832 24.4968 33.9649 29.6742 28.431 33.3224C25.4035 35.3214 22.3258 37.2504 19.2681 39.2094C19.0877 39.3194 18.9373 39.4193 18.7569 39.4193C18.6466 39.4193 18.5263 39.3793 18.3759 39.2894C15.218 37.2304 12.0301 35.2214 8.88219 33.1625C5.35337 30.8636 2.92731 27.7052 1.56391 23.7272C0.882204 21.7282 0.581453 19.6792 0.581453 17.5703C0.591478 12.093 0.581453 6.62572 0.581453 1.14846C0.581453 0.978548 0.581453 0.808633 0.581453 0.598738C12.7118 0.598738 24.812 0.598738 36.9423 0.598738ZM26.4962 5.88609V2.91758C24.2706 2.91758 22.035 2.91758 19.8195 2.91758V7.03552H18.1353V2.91758C15.8295 2.91758 13.5138 2.91758 11.198 2.91758V5.88609H9.52379V2.91758C7.33833 2.91758 5.15287 2.91758 2.95739 2.91758C2.95739 3.12747 2.95739 3.30738 2.95739 3.48729C2.95739 8.28489 2.91729 13.0825 2.96741 17.8801C3.02756 23.2374 5.22305 27.5752 9.52379 30.7137V28.4448H11.208V31.8731C13.4135 33.3524 15.6992 34.7417 17.9248 36.1909V31.5932H19.609V36.1809C21.9147 34.7117 24.2305 33.2824 26.5062 31.7732V28.4348H28.1904V30.6137C32.2806 27.5253 34.4862 23.3474 34.5864 18.09C34.6867 13.2024 34.6065 8.31488 34.6065 3.42732C34.6065 3.2674 34.6065 3.09749 34.6065 2.90758C32.4611 2.90758 30.3258 2.90758 28.1904 2.90758V5.8761H26.4962M37.5037 0.0090332H36.9423H0.591478H0V0.598738V1.14846V5.83612C0 9.74417 0 13.6622 0 17.5703C0 19.8491 0.330826 21.9281 1.01253 23.9171C2.42606 28.025 4.9624 31.3034 8.56139 33.6522C10.1654 34.6917 11.7995 35.7412 13.3734 36.7607C14.9072 37.7502 16.5012 38.7697 18.0551 39.7791C18.2857 39.9291 18.5163 40.009 18.7569 40.009C19.1077 40.009 19.3784 39.8391 19.5889 39.6992C20.5814 39.0595 21.5739 38.4298 22.5764 37.7901C24.6115 36.4908 26.7067 35.1515 28.7619 33.8021C34.4761 30.044 37.4235 24.6867 37.5338 17.8901C37.6039 13.9621 37.5839 9.96406 37.5638 6.10598C37.5538 4.38684 37.5538 2.6777 37.5438 0.958558C37.5438 0.868603 37.5338 0.778648 37.5338 0.678698L37.5237 0.558758L37.5037 0.0090332ZM28.7719 3.49729H34.015C34.015 4.97655 34.025 6.44581 34.025 7.92508C34.0451 11.2534 34.0551 14.7017 33.9949 18.08C33.9047 22.6677 32.1503 26.4658 28.7719 29.3843V28.4348V27.8451H28.1804H26.4962H25.9047V28.4348V31.4633C24.3609 32.4828 22.7769 33.4823 21.2431 34.4518C20.8922 34.6717 20.5413 34.9016 20.1904 35.1215V31.5932V31.0035H19.599H17.9148H17.3233V31.5932V35.1015C16.7318 34.7217 16.1303 34.3419 15.5288 33.9621C14.2957 33.1824 13.0125 32.3728 11.7794 31.5433V28.4248V27.8351H11.188H9.52379H8.93231V28.4248V29.4943C5.41352 26.5658 3.60902 22.6577 3.55889 17.8701C3.51879 14.5518 3.52882 11.1635 3.53884 7.89509C3.53884 6.42582 3.54887 4.96655 3.54887 3.49729H8.94234V5.88609V6.4758H9.52379H11.208H11.7995V5.88609V3.49729H17.5539V7.03552V7.62522H18.1453H19.8295H20.421V7.03552V3.49729H25.9248V5.88609V6.4758H26.5162H28.2004H28.7919V5.88609V3.49729H28.7719Z" fill="#133E5F"/>
</g>
<path d="M55.4088 31.0002L55.4117 8.60024L64.2117 8.60139C65.7691 8.6016 67.0704 8.8471 68.1156 9.33791C69.1822 9.82871 69.9822 10.5115 70.5154 11.3862C71.0699 12.2396 71.3471 13.2317 71.347 14.3623C71.3468 15.493 71.1014 16.4423 70.6106 17.2102C70.1198 17.9782 69.4691 18.5648 68.6584 18.97C67.8477 19.3752 66.973 19.6204 66.0343 19.7056L66.5463 19.3537C67.549 19.3752 68.445 19.642 69.2342 20.1541C70.0448 20.6662 70.6847 21.3382 71.154 22.1703C71.6232 22.981 71.8577 23.8877 71.8576 24.8904C71.8574 26.0637 71.5693 27.1197 70.9932 28.0583C70.4171 28.9755 69.585 29.7008 68.4969 30.234C67.4088 30.7458 66.0755 31.0016 64.4968 31.0014L55.4088 31.0002ZM59.2492 27.8647L63.9532 27.8654C65.2119 27.8655 66.1932 27.567 66.8973 26.9697C67.6014 26.3725 67.9535 25.5406 67.9537 24.4739C67.9538 23.4072 67.5912 22.5645 66.866 21.9457C66.1407 21.3056 65.1488 20.9855 63.8901 20.9854L59.2501 20.9847L59.2492 27.8647ZM59.2505 18.0727L63.6665 18.0733C64.8825 18.0735 65.8105 17.7963 66.4506 17.2417C67.0907 16.6658 67.4108 15.8765 67.4109 14.8738C67.411 13.8925 67.0911 13.1244 66.4512 12.5697C65.8113 11.9936 64.862 11.7055 63.6033 11.7053L59.2513 11.7047L59.2505 18.0727ZM81.4062 31.3877C79.8062 31.3874 78.3876 31.0459 77.1504 30.3631C75.9345 29.6589 74.9746 28.6988 74.2708 27.4827C73.5883 26.2453 73.2471 24.8052 73.2473 23.1626C73.2475 21.4986 73.5891 20.0373 74.2719 18.7787C74.9547 17.5201 75.9042 16.5389 77.1203 15.8351C78.3577 15.1099 79.7871 14.7474 81.4084 14.7477C82.9871 14.7479 84.3631 15.1 85.5363 15.8042C86.7095 16.487 87.6268 17.4045 88.2879 18.5566C88.9491 19.7086 89.2796 21.01 89.2794 22.4607C89.2794 22.674 89.2687 22.9087 89.2473 23.1647C89.2473 23.4207 89.2366 23.698 89.2152 23.9967L76.0312 23.9949L76.0315 21.5309L85.4075 21.5322C85.3437 20.3802 84.9385 19.4734 84.1919 18.812C83.4453 18.1506 82.5174 17.8198 81.408 17.8197C80.6187 17.8195 79.8827 18.0008 79.2 18.3634C78.5386 18.7046 78.0052 19.2272 77.5998 19.9312C77.2157 20.6351 77.0235 21.5311 77.0234 22.6191L77.0233 23.5471C77.0231 24.5284 77.215 25.3711 77.5989 26.0752C77.9829 26.7792 78.5054 27.3233 79.1667 27.7074C79.828 28.0701 80.564 28.2515 81.3747 28.2516C82.2493 28.2518 82.9854 28.0492 83.5827 27.6439C84.1801 27.2387 84.6282 26.7054 84.927 26.0441L88.799 26.0446C88.5215 27.0686 88.0307 27.9859 87.3266 28.7964C86.6438 29.5857 85.8011 30.2149 84.7983 30.6841C83.7956 31.1533 82.6649 31.3878 81.4062 31.3877ZM96.329 31.3896C95.0277 31.3894 93.9504 31.176 93.0971 30.7492C92.2438 30.3011 91.6146 29.7143 91.2093 28.9889C90.8041 28.2422 90.6015 27.4315 90.6016 26.5569C90.6018 25.5542 90.8579 24.6902 91.37 23.965C91.9034 23.2184 92.6821 22.6425 93.7062 22.2373C94.7303 21.8107 95.9996 21.5976 97.5143 21.5978L101.578 21.5983C101.578 20.745 101.45 20.0409 101.195 19.4862C100.96 18.9316 100.587 18.5262 100.075 18.2701C99.5841 17.9927 98.9654 17.854 98.2188 17.8539C97.3441 17.8537 96.5761 18.067 95.9147 18.4936C95.2746 18.8988 94.8906 19.5174 94.7624 20.3494L90.9864 20.3489C91.0933 19.1969 91.4667 18.205 92.1068 17.3731C92.7683 16.5411 93.6324 15.9013 94.6991 15.4534C95.7658 14.9842 96.9499 14.7497 98.2512 14.7499C99.7659 14.7501 101.056 15.0169 102.123 15.5504C103.19 16.0625 104 16.7986 104.555 17.7587C105.131 18.7188 105.419 19.8815 105.418 21.2468L105.417 31.0068L102.217 31.0064L101.801 28.4463L101.737 28.4463C101.481 28.9156 101.172 29.3316 100.809 29.6942C100.447 30.0568 100.041 30.3661 99.5931 30.622C99.1451 30.8566 98.6437 31.0379 98.089 31.1658C97.5557 31.3151 96.969 31.3897 96.329 31.3896ZM97.3534 28.3497C97.9934 28.3498 98.5587 28.2432 99.0494 28.03C99.5401 27.7954 99.9562 27.4754 100.298 27.0701C100.639 26.6648 100.906 26.2062 101.098 25.6942C101.311 25.1823 101.439 24.6489 101.482 24.0943L101.482 24.0623L97.93 24.0618C97.162 24.0617 96.5326 24.1576 96.0419 24.3496C95.5512 24.5415 95.1885 24.8081 94.9538 25.1494C94.7404 25.4694 94.6337 25.8427 94.6337 26.2694C94.6336 26.7174 94.7402 27.1014 94.9535 27.4214C95.1881 27.7201 95.5081 27.9548 95.9134 28.1256C96.3187 28.2749 96.7987 28.3497 97.3534 28.3497ZM107.62 31.0071L107.622 15.1351L110.982 15.1355L111.333 18.3676L111.397 18.3676C111.824 17.4503 112.315 16.7357 112.869 16.2238C113.424 15.6905 114.064 15.3173 114.79 15.104C115.515 14.8695 116.336 14.7522 117.254 14.7524L117.253 18.7844L116.197 18.7842C115.472 18.7841 114.81 18.88 114.213 19.072C113.637 19.2425 113.146 19.5092 112.741 19.8718C112.336 20.2344 112.016 20.725 111.781 21.3436C111.567 21.9409 111.461 22.6769 111.461 23.5516L111.46 31.0076L107.62 31.0071ZM128.873 31.3939C126.633 31.3936 124.702 30.9133 123.081 29.9531C121.46 28.9716 120.212 27.6167 119.337 25.8886C118.463 24.1392 118.026 22.1231 118.026 19.8405C118.027 17.5365 118.464 15.5205 119.339 13.7926C120.214 12.0434 121.462 10.6782 123.084 9.69712C124.705 8.716 126.636 8.22559 128.876 8.22588C131.542 8.22623 133.718 8.88785 135.404 10.2107C137.11 11.5123 138.187 13.3578 138.635 15.7472L134.379 15.7466C134.102 14.4879 133.494 13.4958 132.555 12.7704C131.638 12.0449 130.401 11.6821 128.843 11.6819C127.414 11.6817 126.177 12.0122 125.131 12.6734C124.107 13.3346 123.318 14.2732 122.763 15.4891C122.229 16.705 121.962 18.1556 121.962 19.841C121.962 21.505 122.229 22.945 122.762 24.1611C123.316 25.3772 124.105 26.3159 125.129 26.9774C126.175 27.6175 127.412 27.9377 128.841 27.9379C130.399 27.9381 131.636 27.5969 132.553 26.9144C133.492 26.2318 134.111 25.3039 134.41 24.1306L138.634 24.1312C138.185 26.3924 137.108 28.1736 135.401 29.4747C133.715 30.7545 131.539 31.3942 128.873 31.3939ZM145.949 31.3961C144.648 31.396 143.57 31.1825 142.717 30.7557C141.864 30.3076 141.235 29.7208 140.829 28.9955C140.424 28.2487 140.222 27.438 140.222 26.5634C140.222 25.5607 140.478 24.6967 140.99 23.9715C141.523 23.2249 142.302 22.649 143.326 22.2438C144.35 21.8172 145.62 21.6041 147.134 21.6043L151.198 21.6048C151.198 20.7515 151.07 20.0475 150.815 19.4928C150.58 18.9381 150.207 18.5327 149.695 18.2766C149.204 17.9992 148.585 17.8605 147.839 17.8604C146.964 17.8603 146.196 18.0735 145.535 18.5001C144.895 18.9053 144.511 19.5239 144.382 20.3559L140.606 20.3554C140.713 19.2034 141.087 18.2115 141.727 17.3796C142.388 16.5477 143.252 15.9078 144.319 15.4599C145.386 14.9907 146.57 14.7562 147.871 14.7564C149.386 14.7566 150.676 15.0234 151.743 15.5569C152.81 16.069 153.62 16.8051 154.175 17.7652C154.751 18.7253 155.039 19.888 155.038 21.2533L155.037 31.0133L151.837 31.0129L151.421 28.4528L151.357 28.4528C151.101 28.9221 150.792 29.3381 150.429 29.7007C150.067 30.0633 149.661 30.3726 149.213 30.6286C148.765 30.8632 148.264 31.0444 147.709 31.1724C147.176 31.3216 146.589 31.3962 145.949 31.3961ZM146.973 28.3563C147.613 28.3563 148.179 28.2498 148.669 28.0365C149.16 27.8019 149.576 27.4819 149.918 27.0766C150.259 26.6714 150.526 26.2127 150.718 25.7007C150.931 25.1888 151.059 24.6555 151.102 24.1008L151.102 24.0688L147.55 24.0683C146.782 24.0682 146.153 24.1642 145.662 24.3561C145.171 24.548 144.809 24.8146 144.574 25.1559C144.36 25.4759 144.254 25.8492 144.254 26.2759C144.254 26.7239 144.36 27.1079 144.574 27.4279C144.808 27.7266 145.128 27.9613 145.533 28.1321C145.939 28.2815 146.419 28.3562 146.973 28.3563ZM164.311 38.1185C162.817 38.1183 161.505 37.9262 160.375 37.542C159.244 37.1792 158.359 36.6244 157.719 35.8777C157.1 35.1523 156.791 34.2562 156.791 33.1895C156.791 32.5495 156.951 31.9202 157.272 31.3016C157.613 30.7043 158.114 30.1497 158.776 29.6378C159.458 29.1046 160.323 28.6353 161.368 28.2301L163 30.0544C162.018 30.4169 161.325 30.8435 160.92 31.3341C160.514 31.8247 160.311 32.3473 160.311 32.902C160.311 33.414 160.482 33.8407 160.823 34.1821C161.164 34.5448 161.634 34.8115 162.231 34.9823C162.828 35.1743 163.522 35.2704 164.311 35.2705C165.079 35.2706 165.73 35.1641 166.263 34.9508C166.796 34.7589 167.202 34.4816 167.479 34.119C167.778 33.7777 167.927 33.3617 167.927 32.871C167.927 32.2737 167.703 31.783 167.255 31.3989C166.829 31.0362 165.976 30.8121 164.696 30.7266C163.565 30.6411 162.573 30.5236 161.72 30.3742C160.888 30.2248 160.162 30.0433 159.544 29.8299C158.946 29.5952 158.434 29.3498 158.008 29.0937C157.603 28.8163 157.251 28.5389 156.952 28.2616L156.952 27.5256L160.312 24.07L162.808 24.9983L159.384 28.6139L160.312 26.886C160.525 27.014 160.739 27.1314 160.952 27.2381C161.187 27.3448 161.485 27.4515 161.848 27.5582C162.211 27.6436 162.68 27.729 163.256 27.8144C163.832 27.8998 164.568 27.9746 165.464 28.0387C166.872 28.1669 168.024 28.423 168.92 28.8071C169.816 29.1913 170.466 29.714 170.872 30.3754C171.298 31.0368 171.511 31.8368 171.511 32.7755C171.511 33.6715 171.255 34.5248 170.743 35.3354C170.231 36.146 169.441 36.8072 168.375 37.3191C167.308 37.8523 165.953 38.1188 164.311 38.1185ZM164.312 26.2465C162.968 26.2464 161.816 25.9902 160.856 25.4781C159.896 24.9446 159.16 24.2512 158.649 23.3978C158.137 22.5231 157.881 21.5524 157.881 20.4857C157.881 19.419 158.137 18.4591 158.649 17.6058C159.161 16.7525 159.898 16.07 160.858 15.5581C161.818 15.0249 162.97 14.7584 164.314 14.7585C165.658 14.7587 166.81 15.0255 167.77 15.559C168.73 16.0711 169.465 16.7539 169.977 17.6073C170.489 18.4607 170.745 19.4207 170.745 20.4874C170.745 21.554 170.489 22.5247 169.977 23.3993C169.464 24.2525 168.728 24.9458 167.768 25.479C166.808 25.9909 165.656 26.2467 164.312 26.2465ZM164.313 23.3345C165.23 23.3347 165.966 23.1001 166.521 22.6308C167.097 22.1402 167.385 21.4363 167.385 20.5189C167.385 19.5803 167.097 18.8762 166.521 18.4068C165.967 17.9374 165.231 17.7027 164.313 17.7025C163.396 17.7024 162.649 17.937 162.073 18.4062C161.518 18.8755 161.241 19.5795 161.241 20.5181C161.241 21.4355 161.518 22.1395 162.073 22.6302C162.649 23.0996 163.395 23.3344 164.313 23.3345ZM166.905 17.8629L166.17 15.1428L172.794 15.1436L172.793 17.3836L166.905 17.8629ZM181.959 31.4009C180.359 31.4006 178.94 31.0591 177.703 30.3763C176.487 29.6721 175.527 28.712 174.823 27.4959C174.141 26.2585 173.8 24.8184 173.8 23.1758C173.8 21.5118 174.142 20.0505 174.824 18.7919C175.507 17.5333 176.457 16.5521 177.673 15.8483C178.91 15.1231 180.34 14.7606 181.961 14.7609C183.54 14.7611 184.916 15.1132 186.089 15.8174C187.262 16.5002 188.179 17.4177 188.84 18.5698C189.502 19.7218 189.832 21.0232 189.832 22.4739C189.832 22.6872 189.821 22.9219 189.8 23.1779C189.8 23.4339 189.789 23.7112 189.768 24.0099L176.584 24.0081L176.584 21.5441L185.96 21.5454C185.896 20.3934 185.491 19.4866 184.744 18.8252C183.998 18.1638 183.07 17.833 181.961 17.8329C181.171 17.8327 180.435 18.014 179.752 18.3766C179.091 18.7178 178.558 19.2404 178.152 19.9444C177.768 20.6483 177.576 21.5443 177.576 22.6323L177.576 23.5603C177.576 24.5416 177.768 25.3843 178.151 26.0884C178.535 26.7924 179.058 27.3365 179.719 27.7206C180.381 28.0833 181.116 28.2647 181.927 28.2648C182.802 28.265 183.538 28.0624 184.135 27.6571C184.733 27.2519 185.181 26.7186 185.479 26.0573L189.351 26.0578C189.074 27.0818 188.583 27.9991 187.879 28.8096C187.196 29.5989 186.354 30.2281 185.351 30.6973C184.348 31.1665 183.217 31.401 181.959 31.4009Z" fill="white"/>
<defs>
<clipPath id="clip0_4562_1737">
<rect width="37.5839" height="40" fill="white" transform="translate(0 0.0090332)"/>
</clipPath>
</defs>
</svg>
