<svg width="46" height="36" viewBox="0 0 46 36" fill="none" xmlns="http://www.w3.org/2000/svg">
<path d="M1.13986 36C0.876817 35.3762 0.672226 34.5891 0.52609 33.6386C0.379954 32.6881 0.292272 31.7079 0.263045 30.698C0.233818 29.6584 0.263045 28.6634 0.350727 27.7129C0.467636 26.7624 0.628385 25.9752 0.832976 25.3515C1.27138 25.1733 1.69518 24.8762 2.10436 24.4604C2.54277 24.0149 2.90811 23.3168 3.20038 22.3663C3.49265 21.3861 3.63879 20.0198 3.63879 18.2673C3.63879 16.3663 3.46343 14.9406 3.1127 13.9901C2.7912 13.0099 2.39663 12.3564 1.929 12.0297C1.49059 11.6733 1.09602 11.495 0.745294 11.495C0.482249 10.9604 0.292272 10.2327 0.175363 9.31188C0.0584544 8.39109 0 7.41089 0 6.37129C0.0292272 5.30198 0.116909 4.27723 0.263045 3.29703C0.409181 2.28713 0.628385 1.42574 0.920658 0.71287C3.08347 0.80198 5.02708 0.816831 6.75149 0.757424C8.50512 0.698019 10.2441 0.60891 11.9685 0.490098C13.7222 0.371286 15.622 0.267325 17.6679 0.178216C19.743 0.0594052 22.1835 0 24.9893 0C29.1103 0 32.6176 0.371287 35.5111 1.11386C38.4338 1.82673 40.6697 3.10396 42.2187 4.94554C43.7678 6.78713 44.5277 9.40099 44.4985 12.7871C44.4985 14.5099 44.2208 16.0693 43.6655 17.4653C43.1394 18.8317 42.3649 19.9901 41.3419 20.9406C41.9265 22.1287 42.5987 23.0792 43.3586 23.7921C44.1185 24.5049 44.8346 25.0248 45.5068 25.3515C45.7114 25.9752 45.8429 26.7624 45.9014 27.7129C45.989 28.6634 46.0183 29.6584 45.989 30.698C45.989 31.7079 45.916 32.6881 45.7698 33.6386C45.6237 34.5891 45.4337 35.3762 45.1999 36C44.5569 35.9109 43.8262 35.8069 43.0079 35.6881C42.2187 35.599 41.2688 35.5099 40.1582 35.4208C39.0476 35.3317 37.6739 35.2871 36.0372 35.2871C33.8451 35.2871 32.033 35.3317 30.6009 35.4208C29.198 35.5099 28.0143 35.599 27.0498 35.6881C26.1145 35.8069 25.2669 35.9109 24.507 36C24.3901 35.1968 24.0335 33.4307 23.5425 32.7921C23.4256 34.0396 23.221 35.0941 22.9288 35.9554C21.7012 35.8366 20.0937 35.6881 18.1063 35.5099C16.1188 35.3317 13.956 35.2574 11.6178 35.2871C9.57192 35.3168 7.61369 35.4059 5.74315 35.5545C3.87261 35.7327 2.33818 35.8812 1.13986 36Z" fill="white" fill-opacity="0.16"/>
<path d="M21.8765 23.4094C21.9631 23.4095 22.0487 23.4266 22.1287 23.4599C22.2086 23.4931 22.2812 23.5418 22.3423 23.6031C22.4034 23.6643 22.4518 23.7371 22.4848 23.8171C22.5178 23.8971 22.5348 23.9828 22.5346 24.0694C22.5345 24.1559 22.5173 24.2416 22.4841 24.3215C22.4509 24.4014 22.4022 24.474 22.3409 24.5351C22.2797 24.5962 22.2069 24.6447 22.1269 24.6777C22.0469 24.7107 21.9612 24.7276 21.8746 24.7275C21.6998 24.7272 21.5323 24.6576 21.4089 24.5338C21.2855 24.41 21.2163 24.2423 21.2165 24.0675C21.2168 23.8927 21.2864 23.7252 21.4102 23.6017C21.534 23.4783 21.7017 23.4091 21.8765 23.4094ZM32.2115 19.334C32.125 19.334 32.0393 19.3169 31.9593 19.2837C31.8794 19.2505 31.8068 19.2019 31.7456 19.1407C31.6845 19.0794 31.636 19.0067 31.6029 18.9268C31.5698 18.8468 31.5529 18.7611 31.5529 18.6745C31.553 18.588 31.5701 18.5023 31.6033 18.4223C31.6364 18.3424 31.685 18.2698 31.7463 18.2086C31.8075 18.1475 31.8802 18.099 31.9602 18.0659C32.0402 18.0328 32.1259 18.0159 32.2124 18.0159C32.3872 18.016 32.5548 18.0856 32.6783 18.2093C32.8018 18.333 32.8712 18.5007 32.871 18.6755C32.8709 18.8502 32.8014 19.0178 32.6777 19.1413C32.554 19.2649 32.3863 19.3342 32.2115 19.334ZM32.2115 16.6378C31.6711 16.6383 31.153 16.8532 30.7709 17.2353C30.3888 17.6174 30.1739 18.1355 30.1734 18.6759C30.1734 18.8944 30.2099 19.1119 30.2812 19.3237L23.549 22.9078C23.3623 22.6368 23.1126 22.4152 22.8212 22.2621C22.5298 22.1091 22.2056 22.0292 21.8765 22.0294C21.0993 22.0294 20.3915 22.4747 20.0484 23.1694L14.0006 19.98C13.3612 19.6444 12.8831 18.5925 12.9337 17.6344C12.96 17.1347 13.1325 16.7465 13.3959 16.5965C13.5628 16.5028 13.7634 16.5103 13.9771 16.6219L14.0165 16.6434C15.6196 17.4872 20.864 20.25 21.0853 20.3522C21.4256 20.5106 21.615 20.5744 22.1962 20.2987L33.0375 14.6606C33.1968 14.6006 33.3825 14.4478 33.3825 14.2162C33.3825 13.8956 33.0506 13.769 33.0496 13.769C32.4328 13.4737 31.4849 13.0303 30.5606 12.5972C28.5843 11.6719 26.3446 10.6237 25.3612 10.1081C24.5118 9.66373 23.8284 10.0387 23.7065 10.1137L23.4703 10.2309C19.0434 12.42 13.1184 15.3544 12.7809 15.5597C12.1781 15.9272 11.804 16.6594 11.7553 17.5678C11.6803 19.0087 12.4143 20.5115 13.4653 21.0619L19.8609 24.36C19.9313 24.8445 20.1738 25.2874 20.5438 25.6079C20.9139 25.9284 21.3869 26.1051 21.8765 26.1056C22.4112 26.1047 22.9242 25.894 23.3051 25.5188C23.6861 25.1437 23.9046 24.634 23.9137 24.0994L30.9581 20.2809C31.3143 20.5603 31.7578 20.7131 32.2115 20.7131C32.7519 20.7126 33.27 20.4977 33.6521 20.1156C34.0343 19.7335 34.2491 19.2154 34.2496 18.675C34.2491 18.1346 34.0343 17.6165 33.6521 17.2344C33.27 16.8522 32.7519 16.6383 32.2115 16.6378Z" fill="#0BEAE8"/>
</svg>
