<svg width="46" height="36" viewBox="0 0 46 36" fill="none" xmlns="http://www.w3.org/2000/svg">
<path d="M0.802387 35C0.577156 34.4065 0.394155 33.6575 0.253385 32.7531C0.112616 31.8487 0.0281539 30.916 0 29.9551C0 28.9659 0.0281539 28.0191 0.0844618 27.1147C0.168924 26.2103 0.309693 25.4613 0.506771 24.8678C1.4077 24.67 2.09747 24.2602 2.57608 23.6384C3.08286 22.9884 3.44886 22.2111 3.67409 21.3067C3.89932 20.3741 4.08232 19.4131 4.22309 18.4239C4.39201 17.3782 4.50463 16.3749 4.56094 15.414C4.61724 14.4248 4.50463 13.591 4.22309 12.9127C3.9697 12.2344 3.40663 11.8246 2.53385 11.6833C2.28047 11.1746 2.09747 10.4821 1.98485 9.60598C1.87224 8.72984 1.81593 7.79717 1.81593 6.80798C1.84408 5.79052 1.92854 4.81546 2.06931 3.88279C2.21008 2.92186 2.42124 2.10224 2.70278 1.42394C3.85709 1.53699 5.27886 1.65004 6.9681 1.76309C8.65733 1.84788 10.9096 1.89027 13.725 1.89027C15.6395 1.89027 17.7088 1.81962 19.933 1.6783C22.1853 1.50873 24.4939 1.35328 26.8589 1.21197C29.2238 1.07066 31.5324 1 33.7847 1C35.6992 1 37.2054 1.40981 38.3034 2.22943C39.4296 3.02078 40.2742 4.0665 40.8373 5.36658C41.4004 6.66667 41.7664 8.06567 41.9353 9.56359C42.1042 11.0615 42.1746 12.5312 42.1464 13.9726V17.6608C42.1464 19.3283 42.3013 20.6567 42.611 21.6459C42.9207 22.6068 43.3289 23.3275 43.8357 23.808C44.3706 24.2884 44.9337 24.6417 45.5249 24.8678C45.722 25.4613 45.8487 26.2103 45.905 27.1147C45.9894 28.0191 46.0176 28.9659 45.9894 29.9551C45.9894 30.916 45.9191 31.8487 45.7783 32.7531C45.6375 33.6575 45.4545 34.4065 45.2293 35C44.075 34.8869 42.6814 34.7456 41.0484 34.5761C39.4437 34.4065 37.501 34.3217 35.2206 34.3217C32.8838 34.3217 30.6737 34.4065 28.5903 34.5761C26.5351 34.7456 24.9303 34.8869 23.776 35C22.9688 33.4569 22.1727 34.357 21.8756 35C21.1154 34.9152 20.299 34.8163 19.4262 34.7032C18.5816 34.6185 17.5821 34.5337 16.4278 34.4489C15.3017 34.3641 13.908 34.3217 12.247 34.3217C9.62864 34.3217 7.37633 34.3924 5.49002 34.5337C3.6037 34.7032 2.04116 34.8587 0.802387 35Z" fill="white" fill-opacity="0.16"/>
<path d="M31.5906 10.5075C29.9885 9.80324 28.2754 9.29141 26.4845 9C26.2645 9.3736 26.0075 9.87609 25.8304 10.2758C23.9266 10.0069 22.0402 10.0069 20.1714 10.2758C19.9943 9.87609 19.7315 9.3736 19.5096 9C17.7167 9.29141 16.0017 9.80511 14.3996 10.5112C11.1681 15.099 10.2921 19.5729 10.7301 23.9832C12.8734 25.4869 14.9505 26.4004 16.9925 26.9981C17.4967 26.3462 17.9464 25.6532 18.3338 24.9228C17.596 24.6594 16.8894 24.3344 16.2217 23.957C16.3988 23.8338 16.5721 23.7049 16.7395 23.5723C20.8119 25.3618 25.2367 25.3618 29.2605 23.5723C29.4298 23.7049 29.6031 23.8338 29.7783 23.957C29.1086 24.3362 28.4 24.6613 27.6622 24.9247C28.0496 25.6532 28.4973 26.3481 29.0035 27C31.0474 26.4023 33.1265 25.4888 35.2698 23.9832C35.7838 18.8705 34.3919 14.4377 31.5906 10.5075ZM18.8886 21.2709C17.6661 21.2709 16.6635 20.1986 16.6635 18.8929C16.6635 17.5872 17.6447 16.5131 18.8886 16.5131C20.1325 16.5131 21.135 17.5853 21.1136 18.8929C21.1156 20.1986 20.1325 21.2709 18.8886 21.2709ZM27.1114 21.2709C25.8888 21.2709 24.8862 20.1986 24.8862 18.8929C24.8862 17.5872 25.8674 16.5131 27.1114 16.5131C28.3552 16.5131 29.3578 17.5853 29.3364 18.8929C29.3364 20.1986 28.3552 21.2709 27.1114 21.2709Z" fill="#0BEAE8"/>
</svg>
