<svg width="1404" height="112" viewBox="0 0 1404 112" fill="none" xmlns="http://www.w3.org/2000/svg">
<path d="M0.461914 110.493V1.5074H35.8383C48.4223 1.5074 57.6677 3.96949 63.5745 8.89368C69.4813 13.8179 72.4346 20.9278 72.4346 30.2234C72.4346 35.3988 71.3004 39.9713 69.0318 43.9408C66.8061 47.86 62.7612 51.4024 56.8973 54.568C60.8351 55.8241 63.9811 57.4823 66.3353 59.5424C68.7322 61.6025 70.5085 63.8385 71.6642 66.2503C72.8627 68.6622 73.6545 71.1243 74.0397 73.6366C74.425 76.1489 74.6176 78.5608 74.6176 80.8721C74.6176 90.9717 71.7284 98.4334 65.95 103.257C60.1717 108.081 50.7337 110.493 37.6361 110.493H0.461914ZM22.3555 90.9717H38.3423C42.965 90.9717 46.4534 89.7407 48.8076 87.2786C51.2045 84.7663 52.403 81.6761 52.403 78.0081C52.403 75.3952 51.8251 73.1593 50.6695 71.3001C49.5566 69.3908 47.9943 67.9336 45.9826 66.9287C44.0137 65.8735 41.7237 65.3459 39.1128 65.3459H22.3555V90.9717ZM22.3555 45.2974H39.1128C40.8677 45.2974 42.4728 45.0462 43.9281 44.5437C45.3833 44.0413 46.6674 43.2876 47.7803 42.2826C48.8932 41.2777 49.7706 40.0467 50.4127 38.5895C51.0547 37.0821 51.3757 35.3737 51.3757 33.4643C51.3757 29.4948 50.113 26.4298 47.5877 24.2692C45.0623 22.1086 41.8949 21.0283 38.0855 21.0283H22.3555V45.2974Z" fill="white" fill-opacity="0.06"/>
<path d="M91.3758 110.493V1.5074H157.57L157.442 22.9125H113.398V45.1467H150.957V66.0996H113.269V88.8614L157.955 88.9367V110.493H91.3758Z" fill="white" fill-opacity="0.06"/>
<path d="M167.774 110.493L200.775 1.5074H223.439L256.504 110.493H234.803L227.933 87.2786H196.601L189.603 110.493H167.774ZM201.352 65.1952H222.861L212.139 26.1534L201.352 65.1952Z" fill="white" fill-opacity="0.06"/>
<path d="M268.689 110.493V1.5074H309.331C317.078 1.5074 323.348 2.98968 328.142 5.95424C332.936 8.86855 336.446 12.8883 338.672 18.0135C340.897 23.0884 342.01 28.8668 342.01 35.3486C342.01 41.0265 341.326 45.8502 339.956 49.8196C338.586 53.7389 336.724 57.0552 334.37 59.7685C332.059 62.4316 329.448 64.6927 326.537 66.5518L343.294 110.493H320.823L306.506 70.6972H290.583V110.493H268.689ZM290.583 51.3271H306.313C310.422 51.3271 313.718 49.7945 316.2 46.7295C318.726 43.6644 319.988 40.0215 319.988 35.8008C319.988 31.3791 318.704 27.7613 316.136 24.9475C313.568 22.1337 310.508 20.7268 306.955 20.7268H290.583V51.3271Z" fill="white" fill-opacity="0.06"/>
<path d="M396.394 112C387.577 112 379.937 109.588 373.473 104.764C367.01 99.8905 362.002 93.1575 358.45 84.5653C354.897 75.9731 353.121 66.0494 353.121 54.7941C353.121 43.5891 354.876 33.8914 358.385 25.7012C361.895 17.511 366.882 11.1799 373.345 6.70794C379.851 2.23598 387.534 0 396.394 0C403.585 0 409.984 1.68327 415.591 5.0498C421.241 8.36609 425.8 12.9637 429.267 18.8425C432.734 24.6712 434.81 31.3288 435.494 38.8156H412.574C412.06 35.1978 411.076 32.0574 409.62 29.3943C408.208 26.681 406.324 24.5707 403.97 23.0633C401.659 21.5559 398.898 20.8022 395.688 20.8022C391.964 20.8022 388.711 21.9076 385.929 24.1184C383.147 26.2791 380.985 29.8968 379.444 34.9717C377.946 39.9964 377.197 46.7295 377.197 55.1709C377.197 68.0341 378.866 77.2544 382.205 82.8318C385.586 88.4092 390.081 91.1978 395.688 91.1978C398.898 91.1978 401.659 90.2934 403.97 88.4845C406.324 86.6756 408.208 84.2638 409.62 81.249C411.076 78.1839 412.06 74.8677 412.574 71.3001H435.494C434.895 76.6765 433.804 81.8268 432.22 86.751C430.679 91.6249 428.432 95.9713 425.479 99.79C422.525 103.609 418.673 106.598 413.922 108.759C409.214 110.92 403.371 112 396.394 112Z" fill="white" fill-opacity="0.06"/>
<path d="M440.641 110.493L473.642 1.5074H496.306L529.371 110.493H507.67L500.8 87.2786H469.468L462.47 110.493H440.641ZM474.219 65.1952H495.728L485.006 26.1534L474.219 65.1952Z" fill="white" fill-opacity="0.06"/>
<path d="M576.207 112C567.56 112 560.006 109.689 553.543 105.066C547.122 100.443 542.136 93.9614 538.583 85.6205C535.073 77.2795 533.318 67.5316 533.318 56.3768C533.318 44.9206 535.18 34.9717 538.904 26.5303C542.628 18.0888 547.807 11.5568 554.441 6.93405C561.076 2.31135 568.759 0 577.491 0C583.355 0 588.662 1.0803 593.413 3.24091C598.207 5.35128 602.316 8.24047 605.74 11.9085C609.208 15.5765 611.883 19.747 613.766 24.4199C615.649 29.0426 616.655 33.8412 616.784 38.8156H593.863C593.263 35.5998 592.236 32.6855 590.781 30.0727C589.368 27.4096 587.485 25.2992 585.131 23.7416C582.82 22.1839 580.102 21.4051 576.977 21.4051C573.382 21.4051 570.086 22.5105 567.09 24.7214C564.093 26.9323 561.697 30.55 559.899 35.5747C558.101 40.5491 557.202 47.2319 557.202 55.6232C557.202 62.5572 557.801 68.2351 559 72.6568C560.241 77.0785 561.868 80.5204 563.879 82.9825C565.891 85.4446 568.117 87.1781 570.557 88.183C572.996 89.1377 575.436 89.6151 577.876 89.6151C580.144 89.6151 582.178 89.188 583.975 88.3338C585.816 87.4796 587.4 86.3742 588.726 85.0175C590.096 83.6608 591.209 82.1786 592.065 80.5707C592.921 78.9628 593.477 77.3549 593.734 75.747L594.697 70.4711H576.977V52.9852L617.682 53.2113V110.493H603.044V97.3782C601.503 99.5388 599.598 101.75 597.33 104.011C595.104 106.272 592.3 108.181 588.919 109.739C585.538 111.246 581.3 112 576.207 112Z" fill="white" fill-opacity="0.06"/>
<path d="M635.982 110.493V1.5074H702.176L702.048 22.9125H658.004V45.1467H695.563V66.0996H657.875V88.8614L702.561 88.9367V110.493H635.982Z" fill="white" fill-opacity="0.06"/>
<path d="M784.794 112C775.291 112 767.715 110.141 762.065 106.423C756.458 102.704 752.413 97.4787 749.931 90.7456C747.448 83.9623 746.207 75.9982 746.207 66.8533V1.5074H768.421V68.2853C768.421 76.1238 770.005 81.7766 773.173 85.2436C776.34 88.6604 780.214 90.3688 784.794 90.3688C787.875 90.3688 790.657 89.6151 793.14 88.1077C795.665 86.6003 797.656 84.2387 799.111 81.0229C800.566 77.7568 801.294 73.511 801.294 68.2853V1.5074H823.444V67.1548C823.444 76.1992 822.203 84.0879 819.721 90.821C817.238 97.5038 813.172 102.704 807.522 106.423C801.872 110.141 794.296 112 784.794 112Z" fill="white" fill-opacity="0.06"/>
<path d="M840.632 110.493V1.5074H862.526L901.818 67.9839V1.5074H923.648V110.493H903.937L862.526 40.5491V110.493H840.632Z" fill="white" fill-opacity="0.06"/>
<path d="M942.706 110.493V1.5074H964.6V110.493H942.706Z" fill="white" fill-opacity="0.06"/>
<path d="M1007.98 110.493L976.267 1.5074H997.005L1020.18 80.5707L1043.3 1.5074H1064.1L1032.32 110.493H1007.98Z" fill="white" fill-opacity="0.06"/>
<path d="M1075.75 110.493V1.5074H1141.95L1141.82 22.9125H1097.78V45.1467H1135.34V66.0996H1097.65V88.8614L1142.33 88.9367V110.493H1075.75Z" fill="white" fill-opacity="0.06"/>
<path d="M1158.14 110.493V1.5074H1198.78C1206.53 1.5074 1212.8 2.98968 1217.59 5.95424C1222.39 8.86855 1225.9 12.8883 1228.12 18.0135C1230.35 23.0884 1231.46 28.8668 1231.46 35.3486C1231.46 41.0265 1230.78 45.8502 1229.41 49.8196C1228.04 53.7389 1226.18 57.0552 1223.82 59.7685C1221.51 62.4316 1218.9 64.6927 1215.99 66.5518L1232.75 110.493H1210.27L1195.96 70.6972H1180.03V110.493H1158.14ZM1180.03 51.3271H1195.76C1199.87 51.3271 1203.17 49.7945 1205.65 46.7295C1208.18 43.6644 1209.44 40.0215 1209.44 35.8008C1209.44 31.3791 1208.16 27.7613 1205.59 24.9475C1203.02 22.1337 1199.96 20.7268 1196.41 20.7268H1180.03V51.3271Z" fill="white" fill-opacity="0.06"/>
<path d="M1283.33 112C1278.62 112 1274 111.322 1269.46 109.965C1264.92 108.558 1260.75 106.473 1256.94 103.709C1253.17 100.895 1250.07 97.3782 1247.63 93.1575C1245.19 88.9367 1243.76 83.9874 1243.33 78.3096H1265.67C1266.23 81.2741 1267.32 83.7865 1268.95 85.8466C1270.57 87.8564 1272.71 89.4141 1275.37 90.5195C1278.02 91.5747 1281.1 92.1023 1284.61 92.1023C1287.09 92.1023 1289.51 91.7254 1291.87 90.9717C1294.22 90.1678 1296.17 88.9116 1297.71 87.2032C1299.25 85.4948 1300.02 83.2337 1300.02 80.4199C1300.02 77.0031 1298.89 74.5411 1296.62 73.0337C1294.35 71.476 1291.46 70.2701 1287.95 69.4159L1271.32 65.4966C1266.1 64.2907 1261.58 62.3813 1257.77 59.7685C1254.01 57.1557 1251.1 53.7138 1249.04 49.4428C1247.03 45.1718 1246.02 40.0215 1246.02 33.9919C1246.02 26.9071 1247.69 20.8524 1251.03 15.8277C1254.37 10.7528 1258.89 6.8838 1264.58 4.22073C1270.31 1.5074 1276.76 0.150738 1283.9 0.150738C1291.78 0.150738 1298.48 1.6079 1304 4.52221C1309.52 7.43652 1313.74 11.4563 1316.65 16.5814C1319.56 21.6563 1321.08 27.4096 1321.21 33.8412H1299.38C1299.12 30.5751 1298.29 27.9623 1296.87 26.0027C1295.46 23.9928 1293.6 22.5105 1291.29 21.5559C1288.98 20.6012 1286.3 20.1238 1283.26 20.1238C1278.17 20.1238 1274.51 21.2795 1272.28 23.5909C1270.06 25.9022 1268.95 28.4648 1268.95 31.2786C1268.95 34.0924 1269.82 36.4038 1271.58 38.2127C1273.33 40.0215 1276.24 41.3782 1280.31 42.2826L1295.27 45.6743C1301.52 46.9305 1306.59 49.066 1310.49 52.0808C1314.42 55.0453 1317.31 58.7133 1319.15 63.0848C1321.04 67.406 1321.98 72.3051 1321.98 77.782C1321.98 84.6155 1320.29 90.5949 1316.91 95.7201C1313.57 100.845 1309.01 104.84 1303.23 107.704C1297.45 110.568 1290.82 112 1283.33 112Z" fill="white" fill-opacity="0.06"/>
<path d="M1336.96 110.493V1.5074H1403.15L1403.03 22.9125H1358.98V45.1467H1396.54V66.0996H1358.85V88.8614L1403.54 88.9367V110.493H1336.96Z" fill="white" fill-opacity="0.06"/>
</svg>
