<svg width="46" height="38" viewBox="0 0 46 38" fill="none" xmlns="http://www.w3.org/2000/svg">
<path d="M1.14523 38C0.890733 37.3291 0.683956 36.4826 0.524896 35.4603C0.365837 34.438 0.270401 33.3838 0.238589 32.2976C0.238589 31.1795 0.270401 30.1093 0.334025 29.087C0.429461 28.0647 0.58852 27.2182 0.811203 26.5473C1.32019 26.3556 1.81328 26.0361 2.29046 25.5889C2.76763 25.1097 3.16528 24.359 3.4834 23.3367C3.80152 22.2825 3.96058 20.8129 3.96058 18.9281C3.96058 16.8836 3.76971 15.3501 3.38797 14.3279C3.03804 13.2736 2.60858 12.5708 2.09959 12.2194C1.62241 11.8361 1.19295 11.6444 0.811203 11.6444C0.524896 11.0694 0.318119 10.2867 0.190871 9.29634C0.0636238 8.30601 0 7.25179 0 6.13367C0.0318119 4.98361 0.127248 3.88146 0.286307 2.82724C0.445367 1.74107 0.683956 0.814627 1.00207 0.0479187C1.51107 0.0798645 2.33817 0.127784 3.4834 0.191678C4.66044 0.223623 6.01245 0.271542 7.53942 0.335434C9.0982 0.367381 10.7206 0.399328 12.4066 0.431274C14.0927 0.46322 15.7469 0.495165 17.3693 0.527111H21.8071C25.1473 0.527111 28.8534 0.479192 32.9253 0.383355C37.029 0.287516 41.101 0.159731 45.1411 0C45.3001 0.606977 45.4433 1.4855 45.5705 2.63556C45.6978 3.78562 45.7932 5.06347 45.8568 6.4691C45.9205 7.87474 45.9523 9.29634 45.9523 10.7339C45.9523 12.1715 45.9046 13.4973 45.8091 14.7112C45.7137 15.8932 45.5705 16.8197 45.3797 17.4905C45.2393 17.9311 45.1002 18.9025 45.666 19.2636C45.7614 19.8386 45.8409 20.765 45.9046 22.0429C45.9682 23.2888 46 24.7104 46 26.3077C46 27.8731 45.9682 29.4544 45.9046 31.0517C45.8728 32.649 45.8091 34.0706 45.7137 35.3165C45.6183 36.5624 45.491 37.4569 45.332 38C41.9917 37.9361 38.3651 37.7923 34.4523 37.5687C30.5394 37.377 26.7061 37.2812 22.9523 37.2812C20.9163 37.2812 18.769 37.2972 16.5104 37.3291C14.2835 37.393 12.1203 37.4569 10.0207 37.5208C7.95297 37.6166 6.12379 37.6965 4.5332 37.7604C2.97441 37.8562 1.84509 37.9361 1.14523 38Z" fill="white" fill-opacity="0.16"/>
<path d="M31.983 11.6705C32.1408 10.6511 31.1715 9.84644 30.2651 10.2444L12.2117 18.1708C11.5617 18.4562 11.6093 19.4408 12.2834 19.6555L16.0065 20.8411C16.717 21.0674 17.4865 20.9504 18.107 20.5217L26.5008 14.7225C26.7539 14.5477 27.0298 14.9076 26.8136 15.1305L20.7715 21.3599C20.1854 21.9642 20.3017 22.9882 21.0067 23.4303L27.7715 27.6724C28.5302 28.1482 29.5063 27.6702 29.6482 26.7534L31.983 11.6705Z" fill="#0BEAE8"/>
</svg>
