<svg width="46" height="36" viewBox="0 0 46 36" fill="none" xmlns="http://www.w3.org/2000/svg">
<path d="M28.2372 36C25.6255 36 23.2512 35.9552 21.1143 35.8657C19.0071 35.7761 16.9445 35.6716 14.9263 35.5522C12.9082 35.4627 10.7861 35.4179 8.56021 35.4179C6.3343 35.4179 3.82644 35.5075 1.03664 35.6866C0.799207 35.0597 0.606295 34.2836 0.457901 33.3582C0.339186 32.403 0.264989 31.403 0.23531 30.3582C0.205632 29.3134 0.23531 28.3284 0.324347 27.403C0.413383 26.4478 0.561777 25.6567 0.769529 25.0299C1.24439 24.8507 1.70441 24.5522 2.14959 24.1343C2.59477 23.6866 2.96576 22.9851 3.26255 22.0299C3.55933 21.0448 3.70773 19.6716 3.70773 17.9104C3.70773 16 3.52966 14.5672 3.17351 13.6119C2.84704 12.6269 2.44638 11.9701 1.97152 11.6418C1.52634 11.2836 1.12567 11.1045 0.769529 11.1045C0.413383 10.209 0.175953 9.08955 0.0572377 7.74627C-0.0317987 6.40298 -0.0169593 5.04477 0.101756 3.67164C0.25015 2.26865 0.532098 1.08955 0.947601 0.134327C3.44062 0.25373 5.7704 0.328357 7.93696 0.358207C10.1332 0.358207 12.2552 0.328357 14.3031 0.268656C16.3806 0.208955 18.4729 0.149254 20.5801 0.0895511C22.717 0.0298504 24.9874 0 27.3914 0C29.9438 0 32.2736 0.119402 34.3808 0.358207C36.488 0.567163 38.3132 1.01492 39.8565 1.70149C41.4295 2.38806 42.6315 3.40298 43.4625 4.74627C44.3232 6.08955 44.7535 7.8806 44.7535 10.1194C44.7535 11.4627 44.4567 12.7313 43.8631 13.9254C43.2696 15.1194 42.4682 16.2239 41.4591 17.2388C43.2102 18.2836 44.3973 19.4627 45.0206 20.7761C45.6735 22.0597 46 23.4478 46 24.9403C46 26.6418 45.7329 28.1791 45.1987 29.5522C44.6645 30.8955 43.7296 32.0597 42.394 33.0448C41.0882 34 39.2778 34.7313 36.9628 35.2388C34.6775 35.7463 31.769 36 28.2372 36Z" fill="white" fill-opacity="0.16"/>
<path d="M28.2568 26.0784H30.1591L17.825 9.82325H15.7795L28.2568 26.0784ZM29.4636 7.875H32.9205L25.3727 16.4552L34.25 28.125H27.2955L21.8545 21.0405L15.6364 28.125H12.1795L20.2386 18.9544L11.75 7.875H18.8682L23.7773 14.3495L29.4636 7.875Z" fill="#0BEAE8"/>
</svg>
